<?xml version="1.0" encoding="UTF-8"?>
<svg width="120px" height="120px" viewBox="0 0 120 120" version="1.1" xmlns="http://www.w3.org/2000/svg" xmlns:xlink="http://www.w3.org/1999/xlink">
    <title>craftal-icon</title>
    <g id="Page-1" stroke="none" stroke-width="1" fill="none" fill-rule="evenodd">
        <path d="M37.2447583,73.3156457 L37.1302139,73.2211024 C33.3320779,70.1376185 27.7484305,70.6609792 24.5920435,74.4226148 C21.4356567,78.1842501 21.8898372,83.7739499 25.5860152,86.9789426 L41.522649,100.352937 C42.4725568,101.150004 43.88876,101.026102 44.6858275,100.076194 C45.4828949,99.1262863 45.3589929,97.7100831 44.4090852,96.9130159 L28.585449,83.6354086 C26.685633,82.0412737 26.4378298,79.208867 28.0319645,77.3090512 C29.6260994,75.4092352 32.4585059,75.1614317 34.3583219,76.7555666 L53.2778869,92.6309666 C54.2277949,93.4280341 55.6439981,93.3041321 56.4410653,92.3542244 C57.2381328,91.4043164 57.1142313,89.9881131 56.1643233,89.1910456 L37.2447583,73.3156457 Z M34.7540776,44.8470379 L34.6395337,44.7524945 C30.8413972,41.6690107 25.2577498,42.1923714 22.101363,45.9540067 C18.944976,49.7156423 19.3991565,55.3053421 23.095335,58.5103348 L57.6075414,87.4710853 L57.6940515,87.5455318 C59.514546,89.1521503 59.7306356,91.9268548 58.1610259,93.7974427 L58.0865791,93.8839526 C56.4799609,95.7044474 53.7052567,95.9205366 51.8346688,94.350927 L32.5711116,78.1868833 C31.6212036,77.3898158 30.2050001,77.5137176 29.4079326,78.4636256 C28.6108652,79.4135336 28.7347672,80.8297368 29.6846752,81.6268043 L49.0283771,97.856527 C52.7885322,100.909176 58.2986663,100.426757 61.4711322,96.7668916 L61.5665474,96.6550145 C64.7219483,92.8945542 64.2690375,87.3071715 60.5760391,84.1016911 L26.0082585,55.092354 C24.1877639,53.4857355 23.9716744,50.7110311 25.541284,48.8404431 C27.1354187,46.9406274 29.9678257,46.6928239 31.8676414,48.2869586 L81.7464946,90.1402859 C82.6964027,90.9373534 84.1126059,90.8134519 84.9096734,89.8635439 C85.7067408,88.9136359 85.5828388,87.4974327 84.6329308,86.7003652 L34.7540776,44.8470379 Z M92.1100056,66.5533563 L42.5751443,24.9886725 L42.494999,24.9229935 C38.696863,21.8395096 33.1132157,22.3628703 29.9568286,26.1245059 C26.8004418,29.8861412 27.2546223,35.4758411 30.9508003,38.6808337 L86.0681333,84.9313379 L86.1546435,85.005785 C87.975138,86.612403 88.1912275,89.3871074 86.6216179,91.2576954 C85.0274832,93.1575111 82.1950765,93.4053149 80.2952605,91.8111799 L30.7603995,50.2464963 C29.8104914,49.4494288 28.3942879,49.5733306 27.5972207,50.5232383 C26.8001533,51.4731463 26.924055,52.8893498 27.873963,53.6864173 L77.5233685,95.3456442 C81.3215045,98.4291281 86.9051518,97.9057674 90.0615389,94.1441318 C93.2179257,90.3824965 92.7637452,84.7927967 89.0675672,81.587804 L33.915835,35.3084354 C32.0160189,33.7143005 31.7682157,30.8818938 33.3623504,28.982078 L33.4367975,28.8955678 C35.0434155,27.0750734 37.8181199,26.8589838 39.6887078,28.4285935 L89.2235692,69.9932773 C90.1734769,70.7903445 91.5896804,70.6664428 92.3867476,69.7165351 C93.1838151,68.766627 93.0599133,67.3504236 92.1100056,66.5533563 Z M90.3153248,38.7111024 L70.9716229,22.4813797 C67.2114683,19.4287307 61.7013336,19.9111501 58.528868,23.5710147 L58.4334525,23.6828921 C55.2770655,27.4445277 55.731246,33.0342275 59.4274242,36.2392199 L93.9052314,65.1711061 L93.9917418,65.2455529 C95.812236,66.8521711 96.0283256,69.6268756 94.4587159,71.4974635 C92.8645812,73.3972792 90.0321748,73.6450827 88.1323588,72.0509478 L38.2535056,30.1976204 C37.3035975,29.4005529 35.8873941,29.5244547 35.0903266,30.4743627 C34.2932594,31.4242704 34.4171611,32.8404739 35.3670691,33.6375414 L85.3604666,75.5854123 C89.1586028,78.6688959 94.7422501,78.1455352 97.8986369,74.3838999 C100.990608,70.6990324 100.617878,65.2599541 97.1269081,62.0267397 L96.7916678,61.7311851 L62.3924586,32.8668213 C60.4926428,31.2726866 60.2448394,28.4402802 61.8389743,26.5404642 L61.9134209,26.453954 C63.5200393,24.6334595 66.2947435,24.4173697 68.1653314,25.9869794 L87.4288886,42.1510231 C88.3787966,42.9480905 89.7949998,42.8241891 90.5920673,41.8742811 C91.3891348,40.924373 91.2652328,39.5081698 90.3153248,38.7111024 Z M78.4773512,19.9849698 C77.5274434,19.1879025 76.11124,19.3118043 75.3141725,20.2617123 C74.5171053,21.21162 74.641007,22.6278235 75.5909147,23.4248907 L91.5010611,36.7769451 C93.3215559,38.3835633 93.5376454,41.1582677 91.9680358,43.0288557 C90.3739011,44.9286714 87.5414941,45.1764749 85.6416783,43.5823402 L66.7221131,27.70694 C65.7722054,26.9098728 64.3560021,27.0337742 63.5589347,27.9836823 C62.7618672,28.9335903 62.8857689,30.3497938 63.8356767,31.146861 L82.7552419,47.0222612 L82.8697861,47.1168043 C86.6679223,50.2002879 92.2515697,49.6769271 95.4079564,45.9152918 C98.5643432,42.1536566 98.1101627,36.5639567 94.4139847,33.358964 L78.4773512,19.9849698 Z M25.2039953,101.67197 C26.5338664,102.787865 28.516551,102.614403 29.6324456,101.284531 C30.7483399,99.9546602 30.5748772,97.9719756 29.2450061,96.8560813 C27.9151351,95.740187 25.9324504,95.9136492 24.8165561,97.2435202 C23.7006616,98.5733916 23.8741243,100.556076 25.2039953,101.67197 Z M90.7549654,23.5513664 C92.0848364,24.6672607 94.0675213,24.4937983 95.1834156,23.1639272 C96.2993099,21.8340562 96.1258475,19.8513713 94.7959764,18.735477 C93.4661054,17.6195827 91.4834205,17.7930451 90.3675262,19.1229162 C89.2516319,20.4527872 89.4250943,22.4354721 90.7549654,23.5513664 Z" id="craftal" fill="#000000" fill-rule="nonzero"></path>
    </g>
</svg>