<?xml version="1.0" encoding="UTF-8"?>
<svg width="1755px" height="1746px" viewBox="0 0 1755 1746" version="1.1" xmlns="http://www.w3.org/2000/svg" xmlns:xlink="http://www.w3.org/1999/xlink">
    <title>gm-white</title>
    <g id="v5" stroke="none" stroke-width="1" fill="none" fill-rule="evenodd">
        <path d="M845.393721,6.49239498 C865.754861,-2.04527296 888.591558,-2.16370346 909.025881,6.14422732 L909.644362,6.39856204 L1702.62643,336.196618 C1733.99159,349.241261 1754.58507,380.038912 1755,414.355101 L1755,415.396048 L1755,1330.96958 C1755,1365.34337 1734.73417,1396.34606 1703.60354,1409.7554 L1702.65687,1410.15635 L1485,1500.77953 L1485,526.051045 L1417.5,495.924721 L1417.5,1528.58178 L1147.5,1640.99933 L1147.5,380.183852 L1080,350.117701 L1080,1669.13565 L910.500302,1739.6054 C890.178275,1748.05431 867.418278,1748.13054 847.053394,1739.83585 L846.437014,1739.58193 L675,1668.15999 L675,77.9405065 L845.393721,6.49239498 Z M607.5,105.607028 L607.5,390.214309 L270,518.438207 L270,1228.07764 L337.5,1254.14313 L337.5,564.83851 L607.5,462.118391 L607.5,1641.05776 L52.2783772,1409.34065 C20.9632375,1396.27154 0.414036912,1365.49948 0.0061844145,1331.22069 L0,1330.18088 L0,415.153567 C0,380.742975 20.3086748,349.71467 51.4881004,336.32833 L52.4362492,335.928098 L607.5,105.607028 Z" id="gm-white" fill="#000000"></path>
    </g>
</svg>