<?xml version="1.0" encoding="UTF-8"?>
<svg width="80px" height="109px" viewBox="0 0 80 109" version="1.1" xmlns="http://www.w3.org/2000/svg" xmlns:xlink="http://www.w3.org/1999/xlink">
    <title>medium</title>
    <g id="Page-1" stroke="none" stroke-width="1" fill="none" fill-rule="evenodd">
        <g id="medium">
            <circle id="Oval" stroke="#000000" cx="40" cy="40" r="39.5"></circle>
            <text id="Medium" font-family="ArialMT, Arial" font-size="14" font-weight="normal" line-spacing="22" letter-spacing="-0.260421" fill="#000000">
                <tspan x="15.8847786" y="100">Medium</tspan>
            </text>
            <g id="medium-logo" transform="translate(20, 28)" fill="#000000" fill-rule="nonzero">
                <path d="M22.5624165,11.3588133 C22.5624165,17.6319179 17.5115654,22.7172212 11.2813961,22.7172212 C5.05120681,22.7172212 0,17.6307774 0,11.3588133 C0,5.08686925 5.05082667,0 11.2813961,0 C17.5119655,0 22.5624165,5.08570884 22.5624165,11.3588133 Z M34.938005,11.3588133 C34.938005,17.2635872 32.4127095,22.0521853 29.2974048,22.0521853 C26.1821,22.0521853 23.6566045,17.2635872 23.6566045,11.3588133 C23.6566045,5.45403946 26.1816999,0.665369347 29.2970046,0.665369347 C32.4123093,0.665369347 34.9376048,5.45249891 34.9376048,11.3588133 L34.938005,11.3588133 Z M40,11.3588133 C40,16.648049 39.1118851,20.9383904 38.0160965,20.9383904 C36.9203079,20.9383904 36.0327932,16.6491894 36.0327932,11.3588133 C36.0327932,6.06843733 36.9207081,1.77917431 38.0160965,1.77917431 C39.1114849,1.77917431 40,6.06805719 40,11.3588133 Z" id="Shape"></path>
            </g>
        </g>
    </g>
</svg>