<?xml version="1.0" encoding="UTF-8"?>
<svg width="86px" height="109px" viewBox="0 0 86 109" version="1.1" xmlns="http://www.w3.org/2000/svg" xmlns:xlink="http://www.w3.org/1999/xlink">
    <title>narwhale</title>
    <g id="Page-1" stroke="none" stroke-width="1" fill="none" fill-rule="evenodd">
        <g id="narwhale">
            <path d="M21,25.619955 C24.2308729,25.9823811 26.5394172,28.5875999 26.3284898,30.3542267 C27.777832,28.3329416 29.515601,27.8113232 32.9218863,28.1100536 C32.414076,28.4958702 31.222769,28.7971456 30.1811221,30.7040657 C29.1394755,32.6109857 27.8238385,32.7684312 26.3972066,32.362565 C25.3569577,40.9447791 33.6402162,46.5206786 38.6564355,41.0158219 C41.2147485,38.2082995 45.4319093,37.2458835 48.8311663,38.2359094 C48.8752587,39.9208271 50.7836369,41.388473 52.5750572,40.6159885 C52.9641877,41.0856471 53.4919613,41.3744614 54.0162238,41.6420784 L54.132611,41.7012648 L54.242343,41.75699 C55.2271866,42.2582627 56.1260151,42.7660586 55.974747,44.3630952 C55.890183,45.2558919 55.7111193,46.1102888 55.452254,46.9250622 L55.4460097,46.9222892 L55.4416991,46.9319202 L55.4346649,46.9472829 L55.4288783,46.9597455 L55.4205285,46.9775013 L55.4146357,46.989896 C55.4092467,47.0011835 55.4034555,47.0131906 55.3972583,47.0259054 L55.3894949,47.0417716 L55.3813417,47.0583053 L55.3725326,47.0760285 C55.3378017,47.1456304 55.2975363,47.2231292 55.2515897,47.307996 L55.240125,47.3291082 L55.229341,47.3488536 L55.2186693,47.3682894 C55.0435282,47.6864306 54.8273453,48.0382384 54.5676886,48.4149102 C54.2196212,48.9198356 53.8189063,49.4319136 53.362803,49.9412351 C52.8235672,50.5433891 52.2234272,51.1230321 51.5596223,51.6702972 C50.2386161,52.7593832 48.7151133,53.6809093 46.9754315,54.3876497 C44.9937073,55.1927188 42.7775931,55.6997029 40.3137359,55.8635903 C40.3867489,55.5651044 40.4322448,55.2642199 40.4807917,54.9332206 C40.0013058,55.8222074 39.4843323,56.5869336 38.9363121,57.2326975 L38.892671,57.2338831 L38.894141,57.2820842 C36.0458164,60.5971788 32.368069,60.7208139 28.7574729,58.3904048 C29.584643,58.2216255 30.7258215,57.8366564 32.6832602,56.5382125 C34.3839855,55.4100565 35.7753506,55.3159828 36.3847137,55.3138237 L36.450332,55.3139215 C36.512559,55.3143106 36.5645352,55.3154219 36.6055749,55.3158886 C35.7439125,54.6651863 33.3670281,55.2537048 32.3943952,55.8076048 C21.2709493,49.3561704 20.7568502,38.8584685 25.3399894,31.9030993 C23.1357382,31.775694 22.7914571,30.058205 22.6123702,29.1880242 C22.4332833,28.3178434 22.2003418,26.5358312 21,25.619955 Z M49.2767772,54.8144193 C45.5758195,57.4087685 41.2578971,58.6394296 38.850237,58.2987358 L38.8654664,58.2810453 L38.880748,58.2632351 C39.1142223,57.9906764 39.3089424,57.7423648 39.4722919,57.5116822 C41.9897971,57.3883562 44.2297793,56.9550775 46.2079611,56.2488507 C47.3265469,55.8495067 48.3479866,55.3678705 49.2767772,54.8144193 Z M53.9061611,49.8167935 C53.8522909,49.9078147 53.7956973,50.0004434 53.7363202,50.0945398 C53.4140212,50.6052952 53.0332822,51.1212117 52.5896101,51.6318421 C52.0649373,52.2356979 51.4683108,52.8134232 50.7951832,53.3546249 C49.4849185,54.4080913 47.9326593,55.2863296 46.1172965,55.9423731 C44.2356412,56.6223735 42.1102781,57.049031 39.7260664,57.1882917 C39.9445501,56.8306489 40.0881744,56.512035 40.1901312,56.2022959 C42.7441284,56.0445131 45.0410569,55.5248199 47.0935193,54.6907696 C48.8694719,53.9690832 50.4257806,53.0274383 51.7756171,51.9142575 C52.4543038,51.3545597 53.0680153,50.7616348 53.6195828,50.14553 C53.7109195,50.0435063 53.8000947,49.9413638 53.8871298,49.8391775 L53.9061611,49.8167935 Z M50.6530806,44.7358739 C50.0311713,44.7358739 49.5270142,45.2393145 49.5270142,45.8603397 C49.5270142,46.4813649 50.0311713,46.9848055 50.6530806,46.9848055 C51.2749897,46.9848055 51.7791468,46.4813649 51.7791468,45.8603397 C51.7791468,45.2393145 51.2749897,44.7358739 50.6530806,44.7358739 Z M51.4678178,35.4902659 C51.678851,36.5188988 52.2702599,37.3416531 53.2388626,37.9499417 L52.1408432,40.0500665 C50.9869077,40.4843642 49.6834569,39.4916532 49.5687203,38.4572631 L51.4678178,35.4902659 Z M53.1867309,32.7832188 C53.3831407,33.7243428 53.9018152,34.4927074 54.7402844,35.0817094 L53.4251412,37.5726102 C52.4291663,36.9439988 51.8820201,36.0775108 51.7791468,34.9609683 L53.1867309,32.7832188 Z M54.7838745,30.2427589 C54.922819,31.1493793 55.3399188,31.9042039 56.0331754,32.5017755 L54.8757491,34.7406222 C54.0443012,34.1278891 53.5832361,33.3136921 53.4890996,32.2886026 L54.7838745,30.2427589 Z M56.2520525,27.8688866 C56.3325035,28.7597151 56.6632709,29.5143357 57.2426541,30.1280972 L56.2158669,32.1168687 C55.5185223,31.4847783 55.1527546,30.6707721 55.1156398,29.6668553 L56.2520525,27.8688866 Z M57.8392369,25.4533675 C57.8986698,26.2523596 58.1589857,26.9425617 58.6189573,27.5206311 L57.4242037,29.82629 C56.8566926,29.1772827 56.5892498,28.362946 56.6193442,27.3763841 L57.8392369,25.4533675 Z M59.519055,22.829614 C59.4767239,23.6555259 59.6219237,24.3811641 59.9535544,25.0035441 L58.8536461,27.1192428 C58.4066837,26.492113 58.2058982,25.7289239 58.2494139,24.8245817 L59.519055,22.829614 Z M61.3134194,19.997626 C61.2673831,20.6965991 61.356497,21.3247502 61.5800946,21.880304 L60.1942896,24.4954893 C59.892186,23.7987421 59.8328133,22.9686173 60.0143438,22.0002483 L61.3134194,19.997626 Z M64.9672351,15.4240097 L61.838771,21.4552668 C61.6655406,20.8255282 61.6610097,20.1003001 61.8241051,19.276662 L64.4345083,15.1658448 C64.7376595,14.8132808 65.1139985,15.0816467 64.9672351,15.4240097 Z" id="narwhale-icon" fill="#1E1A22" fill-rule="nonzero"></path>
            <circle id="Oval" stroke="#000000" cx="43" cy="40" r="39.5"></circle>
            <text id="Narwhale-Pod" font-family="ArialMT, Arial" font-size="14" font-weight="normal" line-spacing="22" letter-spacing="-0.260421" fill="#000000">
                <tspan x="0.593776" y="100">Narwhale Pod</tspan>
            </text>
        </g>
    </g>
</svg>