<?xml version="1.0" encoding="UTF-8"?>
<svg width="90px" height="109px" viewBox="0 0 90 109" version="1.1" xmlns="http://www.w3.org/2000/svg" xmlns:xlink="http://www.w3.org/1999/xlink">
    <title>portolio</title>
    <g id="Page-1" stroke="none" stroke-width="1" fill="none" fill-rule="evenodd">
        <g id="portolio">
            <path d="M44.268233,20.1479748 C44.7323045,19.9533841 45.252799,19.9506848 45.7185386,20.1400394 L45.732635,20.1458362 L63.8063004,27.662601 C64.5211758,27.9599148 64.9905429,28.6618555 65,29.4439909 L65,29.4677162 L65,50.335489 C65,51.1189372 64.5381007,51.8255512 63.8285707,52.1311772 L63.8069942,52.1403157 L58.8461538,54.2058013 L58.8461538,31.9897674 L57.3076923,31.3031275 L57.3076923,54.8394708 L51.1538462,57.4016941 L51.1538462,28.665159 L49.6153846,27.9798906 L49.6153846,58.0429778 L45.7521436,59.6491259 C45.2889635,59.8416937 44.7702172,59.8434311 44.3060603,59.6543783 L44.2920117,59.648591 L40.3846154,58.0207405 L40.3846154,21.7764218 L44.268233,20.1479748 Z M38.8461538,22.4069978 L38.8461538,28.8937734 L31.1538462,31.8162554 L31.1538462,47.9903736 L32.6923077,48.5844588 L32.6923077,32.8738122 L38.8461538,30.5326129 L38.8461538,57.4030259 L26.19153,52.1217242 C25.4777946,51.8238528 25.0094367,51.1224953 25.000141,50.3412123 L25,50.3175129 L25,29.4621896 C25,28.6779026 25.4628758,27.9707047 26.173518,27.665603 L26.1951282,27.6564809 L38.8461538,22.4069978 Z" id="gmedrano-logo" fill="#000000" fill-rule="nonzero"></path>
            <circle id="Oval" stroke="#000000" cx="45" cy="40" r="39.5"></circle>
            <text id="Digital-Portfolio" font-family="ArialMT, Arial" font-size="14" font-weight="normal" line-spacing="22" letter-spacing="-0.260421" fill="#000000">
                <tspan x="0.137894906" y="100">Digital Portfolio</tspan>
            </text>
        </g>
    </g>
</svg>