<?xml version="1.0" encoding="UTF-8"?>
<svg width="80px" height="109px" viewBox="0 0 80 109" version="1.1" xmlns="http://www.w3.org/2000/svg" xmlns:xlink="http://www.w3.org/1999/xlink">
    <title>dribbble</title>
    <g id="Page-1" stroke="none" stroke-width="1" fill="none" fill-rule="evenodd">
        <g id="dribbble">
            <circle id="Oval" stroke="#000000" cx="40" cy="40" r="39.5"></circle>
            <text id="Dribbble" font-family="ArialMT, Arial" font-size="14" font-weight="normal" line-spacing="22" letter-spacing="-0.260421" fill="#000000">
                <tspan x="14.9728363" y="100">Dribbble</tspan>
            </text>
            <g id="dribbble-svgrepo-com" transform="translate(22, 22)" fill="#000000" fill-rule="nonzero">
                <path d="M32.9229294,7.9352138 C32.280461,6.98070544 31.5403436,6.08763281 30.7273065,5.27107303 C29.9125786,4.45888139 29.0159832,3.7215117 28.0640817,3.07636607 C27.1025279,2.4250205 26.0732681,1.86688533 25.0062449,1.41337409 C23.9189311,0.953662914 22.7806792,0.601252904 21.6248843,0.365655328 C20.438301,0.123082824 19.2183227,0 17.9992602,0 C16.7792819,0 15.5593035,0.123082824 14.3744816,0.365655328 C13.2168549,0.60118245 12.0786734,0.95359246 10.9922755,1.41337409 C9.92525241,1.86695579 8.89507665,2.4250205 7.93352291,3.07636607 C6.98162134,3.7215117 6.08509647,4.45888139 5.27205938,5.27107303 C4.45817685,6.08763281 3.71805947,6.98070544 3.07467518,7.9352138 C2.42600685,8.89507665 1.86695579,9.92518196 1.41520589,10.9939664 C0.954578813,12.0794484 0.602168803,13.2185458 0.363964436,14.377018 C0.123012371,15.5610649 0,16.7810432 0,18.0010216 C0,19.220084 0.123082824,20.4374556 0.363893983,21.6241093 C0.60209835,22.782511 0.95450836,23.9199175 1.41513544,25.0071608 C1.86688533,26.0750999 2.4259364,27.1043597 3.07460472,28.0641521 C3.71798901,29.0178855 4.4581064,29.912649 5.27198893,30.7282929 C6.08502602,31.5404141 6.98155088,32.2796156 7.93345245,32.9256771 C8.89500619,33.574275 9.92518196,34.1324101 10.9922051,34.5851464 C12.078603,35.0439417 13.2168549,35.3955062 14.3744112,35.6327947 C15.5592331,35.877199 16.7792114,36.0019727 17.9991898,36.0019727 C19.2182522,36.0019727 20.438301,35.877199 21.6248138,35.6327947 C22.7806088,35.3955062 23.9189311,35.0439417 25.0061745,34.5851464 C26.0732681,34.1324101 27.1024575,33.574275 28.0640112,32.9256771 C29.0159128,32.2795451 29.9124376,31.5404141 30.7272361,30.7282929 C31.5402732,29.912649 32.2803905,29.0178855 32.9228589,28.0641521 C33.57505,27.1043597 34.1331851,26.0751703 34.5831737,25.0071608 C35.0437303,23.9199175 35.3952949,22.7825815 35.6326538,21.6241093 C35.8760717,20.4374556 36,19.220084 36,18.0010216 C36,16.7810432 35.8760717,15.5610649 35.6326538,14.377018 C35.3952949,13.2185458 35.0437303,12.0794484 34.5831737,10.9939664 C34.1331851,9.92525241 33.57505,8.89507665 32.9229294,7.9352138 Z M17.9991898,2.62990021 C21.8911997,2.62990021 25.4447495,4.07744441 28.1510921,6.46385621 C28.1132584,6.52007836 25.9238355,9.8531077 20.1235838,12.0275944 C17.49467,7.2004509 14.607261,3.37001759 14.377018,3.06058441 C15.5380969,2.78109411 16.7501845,2.62990021 17.9991898,2.62990021 Z M14.3383953,3.08862432 L14.3433953,3.08862432 C14.3183953,3.09112432 14.2971953,3.09362432 14.2722953,3.10612432 C14.3146953,3.09352432 14.3383953,3.08862432 14.3383953,3.08862432 Z M11.4404323,4.09681921 C11.6452415,4.37025048 14.4877714,8.22787897 17.148319,12.9549076 C9.76778812,14.9159192 3.36198586,14.8350383 2.95673548,14.8315156 C3.95436158,10.0710918 7.15374002,6.12109838 11.4404323,4.09681921 Z M6.56573244,28.2724841 C4.116969,25.5502893 2.62715251,21.9500991 2.62715251,18.0010216 C2.62715251,17.8357369 2.63504334,17.6758067 2.63948193,17.5105925 C2.91192685,17.5210902 10.5069896,17.6915884 18.4219127,15.3220151 C18.8622491,16.1851448 19.2833516,17.060604 19.6691567,17.9342314 C19.4670247,17.9922149 19.2630609,18.0520301 19.0626902,18.1188204 C10.7671756,20.8013496 6.5604484,28.2645228 6.5604484,28.2645228 C6.5604484,28.2645228 6.56397109,28.2689614 6.56573244,28.2724841 Z M17.9991898,33.372143 C14.434156,33.372143 11.160942,32.147726 8.55393925,30.1112583 L8.551262,30.1183037 C8.551262,30.1183037 8.41155208,30.0128343 8.20758827,29.8475497 C8.31918712,29.9425214 8.4405086,30.023332 8.55393925,30.1112583 C8.58205032,30.051443 11.5432244,23.677345 20.6149288,20.5148139 C20.6483943,20.5025549 20.6826349,20.4927618 20.7168755,20.4814188 C22.8799486,26.1032109 23.7729508,30.8108648 24.0005871,32.1539259 C22.1556834,32.938711 20.127952,33.372143 17.9991898,33.372143 Z M26.5892014,30.7493586 C26.4327235,29.8229613 25.6134864,25.3103941 23.5971685,19.7694125 C28.5588788,18.9739184 32.8595914,20.3354385 33.1759995,20.4373851 C32.4921747,24.7215411 30.0408045,28.4201553 26.5892014,30.7493586 Z M22.6602736,17.3435465 C22.5521975,17.0799083 22.4414441,16.8161997 22.3280134,16.547207 C22.0089985,15.797367 21.663493,15.051261 21.3067148,14.318189 C27.3758887,11.8394827 29.8413497,8.27705573 29.8703767,8.23584025 C32.02725,10.854186 33.3307866,14.1986289 33.365943,17.8427118 C33.1435203,17.7970578 27.9409988,16.6790261 22.6602736,17.3435465 Z M14.3383953,3.08862432 C14.3383953,3.08862432 14.3146953,3.09362432 14.2722953,3.10612432 C14.2972953,3.09362432 14.3183953,3.09112432 14.3433953,3.08862432 L14.3383953,3.08862432 Z M8.20765872,29.8475497 C8.31925757,29.9425214 8.44057905,30.023332 8.5540097,30.1112583 L8.55133246,30.1183037 C8.55133246,30.1182333 8.41155208,30.0127639 8.20765872,29.8475497 Z" id="Shape"></path>
            </g>
        </g>
    </g>
</svg>