<?xml version="1.0" encoding="UTF-8"?>
<svg width="80px" height="109px" viewBox="0 0 80 109" version="1.1" xmlns="http://www.w3.org/2000/svg" xmlns:xlink="http://www.w3.org/1999/xlink">
    <title>linkedin</title>
    <g id="Page-1" stroke="none" stroke-width="1" fill="none" fill-rule="evenodd">
        <g id="linkedin">
            <circle id="Oval" stroke="#000000" cx="40" cy="40" r="39.5"></circle>
            <text id="LinkedIn" font-family="ArialMT, Arial" font-size="14" font-weight="normal" line-spacing="22" letter-spacing="-0.260421" fill="#000000">
                <tspan x="14.576352" y="100">LinkedIn</tspan>
            </text>
            <g id="linkedin-icon-1" transform="translate(25, 23)" fill="#000000" fill-rule="nonzero">
                <path d="M0,3.55212355 C0,2.52250193 0.360370656,1.67308108 1.08108108,1.003861 C1.80179151,0.334610039 2.73874903,-5.34996883e-14 3.89189189,-5.34996883e-14 C5.02446332,-5.34996883e-14 5.94078764,0.329451737 6.64092664,0.988416988 C7.36163707,1.66795367 7.72200772,2.55338996 7.72200772,3.64478764 C7.72200772,4.63320463 7.37195367,5.45686486 6.67181467,6.11583012 C5.95110425,6.7953668 5.003861,7.13513514 3.83011583,7.13513514 L3.7992278,7.13513514 C2.66665637,7.13513514 1.75033205,6.7953668 1.05019305,6.11583012 C0.350054054,5.43629344 0,4.58171429 0,3.55212355 Z M0.401544402,30.5791506 L0.401544402,9.94594595 L7.25868726,9.94594595 L7.25868726,30.5791506 L0.401544402,30.5791506 Z M11.0579151,30.5791506 L17.9150579,30.5791506 L17.9150579,19.0579151 C17.9150579,18.3371737 17.9974363,17.7811892 18.1621622,17.3899614 C18.4504402,16.6898224 18.8880309,16.0977915 19.4749035,15.6138996 C20.0617761,15.1299768 20.7979305,14.8880309 21.6833977,14.8880309 C23.9897143,14.8880309 25.1428571,16.4427181 25.1428571,19.5521236 L25.1428571,30.5791506 L32,30.5791506 L32,18.7490347 C32,15.7014054 31.2792896,13.3899614 29.8378378,11.8146718 C28.3963861,10.2393822 26.4916448,9.45173745 24.1235521,9.45173745 C21.4671815,9.45173745 19.3976834,10.5945946 17.9150579,12.8803089 L17.9150579,12.9420849 L17.8841699,12.9420849 L17.9150579,12.8803089 L17.9150579,9.94594595 L11.0579151,9.94594595 C11.0990888,10.6048803 11.1196911,12.6537761 11.1196911,16.0926641 C11.1196911,19.5315212 11.0990888,24.3603398 11.0579151,30.5791506 Z" id="Shape"></path>
            </g>
        </g>
    </g>
</svg>