<?xml version="1.0" encoding="UTF-8"?>
<svg width="120px" height="120px" viewBox="0 0 120 120" version="1.1" xmlns="http://www.w3.org/2000/svg" xmlns:xlink="http://www.w3.org/1999/xlink">
    <title>narwhale-icon</title>
    <g id="Page-1" stroke="none" stroke-width="1" fill="none" fill-rule="evenodd">
        <path d="M10,33.1362615 C17.3428931,33.959957 22.5895847,39.8809088 22.1102041,43.8959698 C25.4041637,39.3021399 29.3536387,38.1166437 37.0951962,38.7955763 C35.9410818,39.6724323 33.2335658,40.357149 30.8661866,44.6910583 C28.498808,49.0249676 25.5087238,49.3827982 22.2663786,48.4603751 C19.9021765,67.965407 38.7277642,80.637906 50.1282626,68.1268679 C55.9426103,61.7461353 65.5270667,59.5588261 73.2526507,61.8088851 C73.3528607,65.6382435 77.6900839,68.9738023 81.7614936,67.2181557 C82.6458812,68.2855617 83.8453667,68.9419578 85.0368722,69.5501782 L85.3013887,69.6846928 L85.5507796,69.8113409 C87.7890605,70.9505971 89.8318524,72.1046787 89.4880613,75.7343073 C89.2958705,77.7633906 88.8889074,79.7052018 88.3005773,81.5569596 L88.2863858,81.5506574 L88.2765889,81.5725459 L88.260602,81.607461 L88.2474508,81.6357851 L88.2284739,81.6761394 L88.2150812,81.7043091 C88.2028334,81.7299624 88.1896717,81.7572514 88.1755871,81.7861486 L88.157943,81.8222082 L88.1394129,81.8597847 L88.1193922,81.9000647 C88.0404585,82.0582509 87.948946,82.2343846 87.8445221,82.4272637 L87.8184659,82.4752459 L87.7939569,82.5201218 L87.769703,82.5642941 C87.3716549,83.2873423 86.8803302,84.0869056 86.2902013,84.9429778 C85.499139,86.0905355 84.5884233,87.2543492 83.551825,88.411898 C82.3262891,89.7804297 80.9623345,91.0978003 79.4536871,92.3415845 C76.4514002,94.8167799 72.9888939,96.9111575 69.0350716,98.5173856 C64.531153,100.347088 59.4945297,101.499325 53.8948542,101.871796 C54.0607928,101.193419 54.1641928,100.509591 54.2745265,99.7573196 C53.1847859,101.777744 52.0098461,103.515758 50.7643456,104.983403 L50.6651614,104.986098 L50.6685023,105.095646 C44.1950373,112.629952 35.8365204,112.910941 27.6306202,107.614556 C29.5105523,107.230967 32.1041399,106.356037 36.5528641,103.405028 C40.4181488,100.841038 43.5803422,100.627234 44.9652584,100.622327 L45.1143909,100.622549 C45.2558159,100.623433 45.3739437,100.625959 45.4672157,100.62702 C43.508892,99.1481506 38.106882,100.485693 35.8963527,101.744556 C10.6157939,87.0822054 9.44738682,63.223792 19.8636123,47.4161348 C14.8539505,47.1265773 14.0714934,43.2231932 13.6644776,41.2455096 C13.2574619,39.2678259 12.7280495,35.2177983 10,33.1362615 Z M74.2654027,99.4873167 C65.8541352,105.383565 56.0406753,108.180522 50.5687204,107.406218 L50.6033326,107.366012 L50.6380636,107.325534 C51.1686871,106.706083 51.6112326,106.141738 51.9824817,105.61746 C57.7040843,105.337173 62.7949529,104.352449 67.2908207,102.747388 C69.8330612,101.839788 72.1545149,100.74516 74.2654027,99.4873167 Z M84.7867298,88.129076 C84.6642974,88.3359426 84.5356757,88.5464623 84.4007278,88.7603177 C83.66823,89.9211255 82.8029141,91.093663 81.7945685,92.2541866 C80.6021302,93.6265861 79.2461609,94.9395983 77.7163256,96.169602 C74.7384511,98.5638439 71.2105892,100.55984 67.0847647,102.050848 C62.8082755,103.596304 57.9779047,104.56598 52.5592418,104.882481 C53.0557957,104.069657 53.3822146,103.345534 53.6139345,102.641582 C59.4184737,102.282984 64.6387658,101.101863 69.3034529,99.2062947 C73.3397089,97.5660981 76.8767741,95.4259962 79.9445844,92.8960397 C81.487054,91.6239993 82.8818531,90.2764427 84.1354154,88.8762045 C84.3429989,88.6443325 84.5456697,88.4121904 84.7434768,88.1799488 L84.7867298,88.129076 Z M77.3933651,76.5815317 C75.9799348,76.5815317 74.8341232,77.7257147 74.8341232,79.1371357 C74.8341232,80.5485567 75.9799348,81.6927397 77.3933651,81.6927397 C78.8067949,81.6927397 79.9526065,80.5485567 79.9526065,79.1371357 C79.9526065,77.7257147 78.8067949,76.5815317 77.3933651,76.5815317 Z M79.2450404,55.5687862 C79.7246613,57.9065882 81.0687724,59.7764843 83.2701422,61.1589584 L80.7746436,65.9319694 C78.152063,66.9190095 75.1896749,64.6628482 74.9289098,62.3119617 L79.2450404,55.5687862 Z M83.1516612,49.4164063 C83.598047,51.5553246 84.7768528,53.3016076 86.6824646,54.6402486 L83.6935027,60.3013868 C81.4299234,58.8727246 80.1864094,56.9034337 79.9526065,54.365837 L83.1516612,49.4164063 Z M86.781533,43.6426339 C87.0973158,45.7031348 88.0452701,47.4186453 89.6208532,48.7767625 L86.9903388,53.8650504 C85.1006846,52.4724753 84.0528093,50.6220274 83.8388627,48.2922786 L86.781533,43.6426339 Z M90.1183012,38.2474694 C90.3011442,40.2720798 91.0528884,41.9871265 92.3696684,43.382039 L90.0360611,47.9019743 C88.451187,46.4654052 87.6198968,44.6153912 87.5355451,42.333762 L90.1183012,38.2474694 Z M93.7255383,32.7576534 C93.8606132,34.5735446 94.4522403,36.1421857 95.4976303,37.4559797 L92.7822811,42.6961135 C91.4924831,41.2210971 90.8846586,39.3703317 90.9530551,37.1281457 L93.7255383,32.7576534 Z M97.5433069,26.7945773 C97.4470998,28.6716498 97.7770993,30.3208275 98.5308055,31.7353274 L96.0310139,36.5437336 C95.0151901,35.1184386 94.5588595,33.383918 94.6577589,31.3285947 L97.5433069,26.7945773 Z M101.621408,20.3582409 C101.51678,21.9468161 101.719311,23.3744322 102.227488,24.6370546 L99.077931,30.5806575 C98.3913319,28.9971412 98.2563939,27.110494 98.6689633,24.9096551 L101.621408,20.3582409 Z M109.925534,9.96365833 L102.815389,23.6710609 C102.421683,22.2398368 102.411386,20.5915912 102.782057,18.7196864 L108.714792,9.37692002 C109.403771,8.57563808 110.259088,9.18556078 109.925534,9.96365833 Z" id="narwhale-icon" fill="#1E1A22" fill-rule="nonzero"></path>
    </g>
</svg>