<?xml version="1.0" encoding="UTF-8"?>
<svg width="120px" height="120px" viewBox="0 0 120 120" version="1.1" xmlns="http://www.w3.org/2000/svg" xmlns:xlink="http://www.w3.org/1999/xlink">
    <title>robot-icon</title>
    <g id="Page-1" stroke="none" stroke-width="1" fill="none" fill-rule="evenodd">
        <path d="M95.7268737,40.6837047 L95.7268737,37.516862 C95.7268737,36.4334241 94.8483538,35.561909 93.7719207,35.561909 L91.8169676,35.561909 L91.8169676,42.6351908 L93.7719207,42.6351908 C94.848336,42.6351908 95.7268737,41.7670893 95.7268737,40.6802378 L95.7268737,40.6837047 Z M43.9391077,56.1992333 L76.1835658,56.1992333 C82.6526363,56.1992333 87.9095505,50.9419634 87.9095505,44.4732485 L87.9095505,33.7259848 C87.9095505,27.2569143 82.6522807,22 76.1835658,22 L43.9391077,22.0034757 C37.4700372,22.0034757 32.213123,27.2607456 32.213123,33.7294605 L32.213123,44.4767243 C32.213123,50.9457948 37.4703928,56.202709 43.9391077,56.202709 L43.9391077,56.1992333 Z M65.9225513,36.0247792 C65.9225513,34.9483638 66.8010712,34.0698261 67.8775043,34.0698261 C68.9609423,34.0698261 69.8324574,34.948346 69.8324574,36.0247792 L69.8324574,42.1813879 C69.8324574,43.2578032 68.9643558,44.1363409 67.8775043,44.1363409 C66.8010889,44.1363409 65.9225513,43.257821 65.9225513,42.1813879 L65.9225513,36.0247792 Z M50.2896828,36.0247792 C50.2896828,34.9483638 51.1682027,34.0698261 52.2446358,34.0698261 C53.3280738,34.0698261 54.1995889,34.948346 54.1995889,36.0247792 L54.1995889,42.1813879 C54.1995889,43.2578032 53.3314873,44.1363409 52.2446358,44.1363409 C51.1682205,44.1363409 50.2896828,43.257821 50.2896828,42.1813879 L50.2896828,36.0247792 Z M26.351464,42.6393689 L28.306417,42.6393689 L28.306417,35.566087 L26.351464,35.566087 C25.2750486,35.566087 24.3965118,36.4341886 24.3965118,37.5210401 L24.3965118,40.6878827 C24.3965118,41.7713206 25.2750308,42.6428357 26.351464,42.6428357 L26.351464,42.6393689 Z M28.9098283,67.9252181 L91.0901717,67.9252181 C96.0106228,67.9252181 100,72.8456692 100,76.8350464 L100,89.3041836 C100,94.2246347 96.0101783,98.214011 91.0901717,98.214011 L28.9098283,98.214011 C23.9893772,98.214011 20,93.2935608 20,89.3041836 L20,76.8350464 C20,71.9145953 23.9898217,67.9252181 28.9098283,67.9252181 Z M52.2480138,60.1087838 C51.1681316,60.1087838 50.2930607,60.9838369 50.2930607,62.0637369 C50.2930607,63.1436191 51.1681138,64.0186899 52.2480138,64.0186899 L67.8808823,64.0186899 C68.9607645,64.0186899 69.8358353,63.1436369 69.8358353,62.0637369 C69.8358353,60.9838547 68.9607823,60.1087838 67.8808823,60.1087838 L52.2480138,60.1087838 Z" id="robot" fill="#000000"></path>
    </g>
</svg>